<svg xmlns="http://www.w3.org/2000/svg" width="30" height="30" fill="none" y="240">
    <path opacity=".01" fill="#0A111A" fill-opacity=".5" d="M0 0h30v30H0z"/>
    <path fill-rule="evenodd" clip-rule="evenodd"
          d="M22.604 23.048a1.445 1.445 0 00-.18-.031 4.544 4.544 0 01-2.564-1.489.347.347 0 00-.507 0 .385.385 0 00.05.572l.104.104c.67.7 1.091 1.56 1.264 2.463a1.607 1.607 0 00.436 1.01c.585.61 1.534.61 2.119 0a1.61 1.61 0 000-2.211 1.475 1.475 0 00-.722-.418m4.956-3.991a1.455 1.455 0 00-2.118 0 1.577 1.577 0 00-.43.942 4.875 4.875 0 01-1.428 2.674.385.385 0 000 .529.347.347 0 00.549-.052 4.547 4.547 0 012.46-1.427 1.4 1.4 0 00.304-.053c.243-.07.473-.203.664-.402a1.61 1.61 0 000-2.21m-6.345-4.42a1.61 1.61 0 000 2.21 1.476 1.476 0 00.902.45 4.543 4.543 0 012.565 1.488c.14.146.366.146.506 0a.386.386 0 00-.05-.572 4.872 4.872 0 01-1.369-2.567 1.513 1.513 0 00-.05-.316 1.577 1.577 0 00-.385-.693 1.455 1.455 0 00-2.119 0m-1.699 5.772a1.54 1.54 0 00.012-.095 4.879 4.879 0 011.428-2.674.385.385 0 000-.529.347.347 0 00-.549.052 4.62 4.62 0 01-2.46 1.428 1.44 1.44 0 00-.304.052 1.48 1.48 0 00-.664.402 1.61 1.61 0 000 2.21 1.454 1.454 0 002.119 0 1.576 1.576 0 00.418-.846"
          fill="#0A111A" fill-opacity=".5"/>
    <path fill-rule="evenodd" clip-rule="evenodd"
          d="M21.041 6.985c-1.737-1.874-4.17-3.081-6.849-3.4-.48-.056-.957-.085-1.417-.085-.438 0-.894.026-1.356.079-2.692.305-5.138 1.506-6.888 3.382a9.6 9.6 0 00-1.673 2.458A8.889 8.889 0 002 13.233a9.03 9.03 0 001.436 4.854 13.2 13.2 0 001.97 2.348l-.323 2.654c-.013.036-.027.072-.035.11-.008.034-.01.07-.013.106-.002.027-.008.053-.008.081 0 .03.006.058.008.087.043.436.392.778.821.778a.8.8 0 00.41-.117c.03-.018.047-.027.064-.04l.773-.404 2.303-1.206c.662.199 1.319.325 2.011.405a11.951 11.951 0 002.775-.008 11.7 11.7 0 002.716-.662 1.491 1.491 0 01-.274-.128 1.582 1.582 0 01-.746-1.506c-.617.204-1.26.35-1.925.43a9.996 9.996 0 01-2.324.007c-.079-.01-.157-.022-.236-.033a9.888 9.888 0 01-1.523-.333c-.1-.033-.208-.05-.317-.05-.17 0-.336.047-.503.137-.022.012-.044.022-.066.035l-1.891 1.163-.082.05c-.043.026-.066.036-.087.036-.07 0-.126-.062-.126-.137l.073-.307.084-.334.138-.548.154-.611a.841.841 0 00-.286-.922 8.602 8.602 0 01-.79-.693 7.986 7.986 0 01-1.121-1.382 7.12 7.12 0 01-1.137-3.828c0-1.039.227-2.049.676-3.002a7.705 7.705 0 011.343-1.97c1.438-1.542 3.462-2.53 5.697-2.784.388-.044.77-.066 1.136-.066.384 0 .783.024 1.188.072 2.224.263 4.235 1.257 5.663 2.798a7.695 7.695 0 011.335 1.974c.442.947.666 1.95.666 2.978 0 .106-.006.213-.011.32a1.45 1.45 0 011.839.225c.025.026.046.055.069.083a8.89 8.89 0 00-.819-4.443 9.593 9.593 0 00-1.664-2.465z"
          fill="#0A111A" fill-opacity=".5"/>
</svg>
